<svg xmlns="http://www.w3.org/2000/svg" xmlns:xlink="http://www.w3.org/1999/xlink" width="500" zoomAndPan="magnify" viewBox="0 0 375 374.999991" height="500" preserveAspectRatio="xMidYMid meet" version="1.0"><defs><g/></defs><g fill="#ffffff" fill-opacity="1"><g transform="translate(143.251944, 267.133319)"><g><path d="M 153.875 27.625 C 140.425781 27.625 129.414062 23.335938 120.84375 14.765625 C 114.488281 8.410156 110.304688 0.421875 108.296875 -9.203125 C 98.242188 -1.585938 85.910156 2.21875 71.296875 2.21875 C 59.753906 2.21875 49.242188 -0.289062 39.765625 -5.3125 C 30.296875 -10.34375 22.890625 -17.25 17.546875 -26.03125 C 12.203125 -34.820312 9.53125 -44.722656 9.53125 -55.734375 C 9.53125 -66.742188 12.203125 -76.664062 17.546875 -85.5 C 22.890625 -94.34375 30.269531 -101.195312 39.6875 -106.0625 C 49.113281 -110.9375 59.648438 -113.375 71.296875 -113.375 C 85.910156 -113.375 98.773438 -109.773438 109.890625 -102.578125 L 113.0625 -80.1875 L 111.640625 -80.1875 C 108.460938 -92.46875 101.257812 -100.832031 90.03125 -105.28125 C 84.53125 -107.5 78.285156 -108.609375 71.296875 -108.609375 C 57.003906 -108.609375 45.117188 -103.632812 35.640625 -93.6875 C 26.171875 -83.738281 21.4375 -71.113281 21.4375 -55.8125 C 21.4375 -40.519531 26.195312 -27.84375 35.71875 -17.78125 C 45.25 -7.726562 57.109375 -2.648438 71.296875 -2.546875 C 78.179688 -2.546875 84.742188 -3.757812 90.984375 -6.1875 C 97.234375 -8.625 102.582031 -12.015625 107.03125 -16.359375 L 107.03125 -44.46875 C 107.03125 -46.789062 106.34375 -48.5625 104.96875 -49.78125 C 103.59375 -51 101.632812 -51.609375 99.09375 -51.609375 L 96.546875 -51.609375 L 96.546875 -53.203125 L 127.671875 -53.203125 L 127.671875 -51.609375 L 125.296875 -51.609375 C 122.648438 -51.609375 120.632812 -51 119.25 -49.78125 C 117.875 -48.5625 117.238281 -46.789062 117.34375 -44.46875 L 117.34375 -20.015625 C 117.976562 -3.285156 123.429688 8.675781 133.703125 15.875 C 140.898438 20.957031 150.21875 23.5 161.65625 23.5 C 166.414062 23.5 171.601562 23.023438 177.21875 22.078125 L 177.375 23.65625 C 168.90625 26.300781 161.070312 27.625 153.875 27.625 Z M 153.875 27.625 "/></g></g></g><g fill="#ffffff" fill-opacity="1"><g transform="translate(97.132807, 235.88332)"><g><path d="M 18.890625 -116.5625 C 25.773438 -119.414062 32.394531 -120.84375 38.75 -120.84375 C 44.039062 -120.84375 49.488281 -118.882812 55.09375 -114.96875 C 58.164062 -112.851562 61.609375 -108.722656 65.421875 -102.578125 C 67.960938 -98.347656 71.191406 -90.675781 75.109375 -79.5625 L 94.484375 -24.609375 C 98.929688 -12.328125 103.457031 -2.5625 108.0625 4.6875 C 112.664062 11.9375 116.875 17.382812 120.6875 21.03125 C 124.5 24.6875 128.46875 27.253906 132.59375 28.734375 C 136.71875 30.222656 140.128906 30.96875 142.828125 30.96875 C 145.535156 30.96875 147.945312 30.753906 150.0625 30.328125 L 150.21875 31.921875 C 145.132812 33.609375 140.15625 34.453125 135.28125 34.453125 C 130.414062 34.453125 125.546875 33.207031 120.671875 30.71875 C 115.804688 28.238281 111.257812 24.773438 107.03125 20.328125 C 97.925781 11.117188 90.195312 -2.90625 83.84375 -21.75 L 77.65625 -39.859375 L 34.140625 -39.859375 L 23.1875 -11.59375 C 22.65625 -10.320312 22.390625 -9.050781 22.390625 -7.78125 C 22.390625 -6.507812 22.941406 -5.160156 24.046875 -3.734375 C 25.160156 -2.304688 26.882812 -1.59375 29.21875 -1.59375 L 30.484375 -1.59375 L 30.484375 0 L -1.4375 0 L -1.4375 -1.59375 L 0 -1.59375 C 2.539062 -1.59375 5.023438 -2.359375 7.453125 -3.890625 C 9.890625 -5.421875 11.90625 -7.722656 13.5 -10.796875 L 52.875 -105.125 C 47.15625 -113.269531 40.0625 -117.34375 31.59375 -117.34375 C 27.78125 -117.34375 23.707031 -116.550781 19.375 -114.96875 Z M 35.890625 -44.625 L 76.0625 -44.625 L 63.515625 -81.625 C 61.078125 -88.71875 58.851562 -94.273438 56.84375 -98.296875 Z M 35.890625 -44.625 "/></g></g></g><path fill="#000000" d="M 99.398438 179.496094 L 260.917969 179.496094 C 261.980469 179.496094 262.996094 179.917969 263.746094 180.667969 C 264.496094 181.417969 264.917969 182.4375 264.917969 183.5 L 264.917969 191.5 C 264.917969 192.5625 264.496094 193.582031 263.746094 194.332031 C 262.996094 195.082031 261.980469 195.503906 260.917969 195.503906 L 99.398438 195.503906 C 98.339844 195.503906 97.320312 195.082031 96.570312 194.332031 C 95.820312 193.582031 95.398438 192.5625 95.398438 191.5 L 95.398438 183.5 C 95.398438 182.4375 95.820312 181.417969 96.570312 180.667969 C 97.320312 179.917969 98.339844 179.496094 99.398438 179.496094 Z M 99.398438 179.496094 " fill-opacity="1" fill-rule="nonzero"/><g fill="#ffffff" fill-opacity="1"><g transform="translate(103.216507, 190.499987)"><g><path d="M -0.09375 0 L 2.9375 -7.109375 L 4.03125 -7.109375 L 6.953125 0 L 5.625 0 L 4.984375 -1.625 L 1.890625 -1.625 L 1.21875 0 Z M 2.328125 -2.71875 L 4.5625 -2.71875 L 3.46875 -5.515625 Z M 2.328125 -2.71875 "/></g></g></g><g fill="#ffffff" fill-opacity="1"><g transform="translate(117.72445, 190.499987)"><g><path d="M 0.734375 0 L 0.734375 -7.109375 L 2.03125 -7.109375 L 2.03125 -4.171875 L 5.40625 -4.171875 L 5.40625 -7.109375 L 6.703125 -7.109375 L 6.703125 0 L 5.40625 0 L 5.40625 -3.03125 L 2.03125 -3.03125 L 2.03125 0 Z M 0.734375 0 "/></g></g></g><g fill="#ffffff" fill-opacity="1"><g transform="translate(132.772817, 190.499987)"><g><path d="M 0.6875 0 L 0.96875 -7.109375 L 2.09375 -7.109375 L 4.703125 -1.625 L 7.296875 -7.109375 L 8.421875 -7.109375 L 8.640625 0 L 7.390625 0 L 7.25 -4.421875 L 5.140625 0 L 4.15625 0 L 2.078125 -4.390625 L 1.890625 0 Z M 0.6875 0 "/></g></g></g><g fill="#ffffff" fill-opacity="1"><g transform="translate(149.742693, 190.499987)"><g><path d="M 5.3125 -5.984375 L 2 -5.984375 L 2 -4.15625 L 5.140625 -4.15625 L 5.140625 -3.03125 L 2 -3.03125 L 2 -1.125 L 5.421875 -1.125 L 5.34375 0 L 0.734375 0 L 0.734375 -7.109375 L 5.3125 -7.109375 Z M 5.3125 -5.984375 "/></g></g></g><g fill="#ffffff" fill-opacity="1"><g transform="translate(163.019675, 190.499987)"><g><path d="M 0.734375 0 L 0.734375 -7.109375 L 2.84375 -7.109375 C 4.226562 -7.109375 5.273438 -6.8125 5.984375 -6.21875 C 6.691406 -5.625 7.046875 -4.742188 7.046875 -3.578125 C 7.046875 -2.859375 6.882812 -2.226562 6.5625 -1.6875 C 6.25 -1.15625 5.804688 -0.738281 5.234375 -0.4375 C 4.660156 -0.144531 3.988281 0 3.21875 0 Z M 2.03125 -1.15625 L 3.171875 -1.15625 C 4.003906 -1.15625 4.632812 -1.351562 5.0625 -1.75 C 5.5 -2.15625 5.71875 -2.75 5.71875 -3.53125 C 5.71875 -4.34375 5.492188 -4.945312 5.046875 -5.34375 C 4.609375 -5.75 3.929688 -5.953125 3.015625 -5.953125 L 2.03125 -5.953125 Z M 2.03125 -1.15625 "/></g></g></g><g fill="#ffffff" fill-opacity="1"><g transform="translate(178.12809, 190.499987)"><g/></g></g><g fill="#ffffff" fill-opacity="1"><g transform="translate(188.182542, 190.499987)"><g><path d="M 4.203125 -3.703125 L 7.015625 -3.703125 L 7.015625 0 L 5.984375 0 L 5.875 -0.765625 C 5.644531 -0.453125 5.347656 -0.226562 4.984375 -0.09375 C 4.628906 0.03125 4.234375 0.09375 3.796875 0.09375 C 3.117188 0.09375 2.523438 -0.046875 2.015625 -0.328125 C 1.515625 -0.609375 1.128906 -1.007812 0.859375 -1.53125 C 0.585938 -2.0625 0.453125 -2.691406 0.453125 -3.421875 C 0.453125 -4.171875 0.601562 -4.828125 0.90625 -5.390625 C 1.21875 -5.960938 1.660156 -6.410156 2.234375 -6.734375 C 2.804688 -7.054688 3.476562 -7.21875 4.25 -7.21875 C 4.875 -7.21875 5.410156 -7.097656 5.859375 -6.859375 C 6.304688 -6.628906 6.675781 -6.28125 6.96875 -5.8125 L 5.96875 -5.078125 C 5.789062 -5.398438 5.546875 -5.632812 5.234375 -5.78125 C 4.929688 -5.9375 4.597656 -6.015625 4.234375 -6.015625 C 3.734375 -6.015625 3.300781 -5.90625 2.9375 -5.6875 C 2.570312 -5.476562 2.289062 -5.175781 2.09375 -4.78125 C 1.894531 -4.394531 1.796875 -3.945312 1.796875 -3.4375 C 1.796875 -2.6875 1.984375 -2.101562 2.359375 -1.6875 C 2.742188 -1.28125 3.265625 -1.078125 3.921875 -1.078125 C 4.234375 -1.078125 4.53125 -1.132812 4.8125 -1.25 C 5.09375 -1.363281 5.320312 -1.53125 5.5 -1.75 C 5.675781 -1.976562 5.765625 -2.253906 5.765625 -2.578125 L 5.765625 -2.640625 L 4.203125 -2.640625 Z M 4.203125 -3.703125 "/></g></g></g><g fill="#ffffff" fill-opacity="1"><g transform="translate(203.330994, 190.499987)"><g><path d="M 3.890625 0.09375 C 3.171875 0.09375 2.550781 -0.0390625 2.03125 -0.3125 C 1.519531 -0.59375 1.128906 -0.992188 0.859375 -1.515625 C 0.585938 -2.046875 0.453125 -2.679688 0.453125 -3.421875 C 0.453125 -4.160156 0.597656 -4.816406 0.890625 -5.390625 C 1.179688 -5.960938 1.59375 -6.410156 2.125 -6.734375 C 2.664062 -7.054688 3.304688 -7.21875 4.046875 -7.21875 C 4.703125 -7.21875 5.273438 -7.066406 5.765625 -6.765625 C 6.265625 -6.472656 6.648438 -6.0625 6.921875 -5.53125 C 7.191406 -5.007812 7.328125 -4.398438 7.328125 -3.703125 C 7.328125 -2.929688 7.175781 -2.257812 6.875 -1.6875 C 6.582031 -1.125 6.175781 -0.6875 5.65625 -0.375 C 5.144531 -0.0625 4.554688 0.09375 3.890625 0.09375 Z M 3.859375 -1.078125 C 4.273438 -1.078125 4.644531 -1.179688 4.96875 -1.390625 C 5.289062 -1.597656 5.546875 -1.894531 5.734375 -2.28125 C 5.921875 -2.664062 6.015625 -3.140625 6.015625 -3.703125 C 6.015625 -4.410156 5.832031 -4.976562 5.46875 -5.40625 C 5.101562 -5.832031 4.617188 -6.046875 4.015625 -6.046875 C 3.578125 -6.046875 3.191406 -5.9375 2.859375 -5.71875 C 2.523438 -5.5 2.257812 -5.195312 2.0625 -4.8125 C 1.863281 -4.425781 1.765625 -3.972656 1.765625 -3.453125 C 1.765625 -2.691406 1.953125 -2.101562 2.328125 -1.6875 C 2.703125 -1.28125 3.210938 -1.078125 3.859375 -1.078125 Z M 3.859375 -1.078125 "/></g></g></g><g fill="#ffffff" fill-opacity="1"><g transform="translate(218.729636, 190.499987)"><g><path d="M 0.6875 0 L 0.96875 -7.109375 L 2.09375 -7.109375 L 4.703125 -1.625 L 7.296875 -7.109375 L 8.421875 -7.109375 L 8.640625 0 L 7.390625 0 L 7.25 -4.421875 L 5.140625 0 L 4.15625 0 L 2.078125 -4.390625 L 1.890625 0 Z M 0.6875 0 "/></g></g></g><g fill="#ffffff" fill-opacity="1"><g transform="translate(235.699507, 190.499987)"><g><path d="M -0.09375 0 L 2.9375 -7.109375 L 4.03125 -7.109375 L 6.953125 0 L 5.625 0 L 4.984375 -1.625 L 1.890625 -1.625 L 1.21875 0 Z M 2.328125 -2.71875 L 4.5625 -2.71875 L 3.46875 -5.515625 Z M 2.328125 -2.71875 "/></g></g></g><g fill="#ffffff" fill-opacity="1"><g transform="translate(250.207455, 190.499987)"><g><path d="M -0.09375 0 L 2.9375 -7.109375 L 4.03125 -7.109375 L 6.953125 0 L 5.625 0 L 4.984375 -1.625 L 1.890625 -1.625 L 1.21875 0 Z M 2.328125 -2.71875 L 4.5625 -2.71875 L 3.46875 -5.515625 Z M 2.328125 -2.71875 "/></g></g></g></svg>